<?xml version="1.0" standalone="no"?>
<!DOCTYPE svg PUBLIC "-//W3C//DTD SVG 20010904//EN"
 "http://www.w3.org/TR/2001/REC-SVG-20010904/DTD/svg10.dtd">
<svg version="1.0" xmlns="http://www.w3.org/2000/svg"
 width="260.000000pt" height="130.000000pt" viewBox="0 0 260.000000 130.000000"
 preserveAspectRatio="xMidYMid meet">

<g transform="translate(0.000000,130.000000) scale(0.100000,-0.100000)"
fill="#000000" stroke="none">
<path d="M1195 1080 c-84 -13 -182 -65 -217 -115 -59 -84 -47 -207 27 -281 52
-52 114 -75 286 -109 231 -44 332 -78 379 -125 20 -20 20 -19 25 3 9 33 -12
117 -40 159 -35 53 -122 91 -292 127 -77 16 -155 37 -173 46 -41 21 -57 56
-42 90 17 36 54 48 152 48 105 1 145 -17 169 -74 l16 -39 98 0 c109 0 106 -3
81 79 -22 76 -89 141 -175 169 -75 25 -208 35 -294 22z"/>
<path d="M80 996 l0 -87 203 1 c111 0 219 1 240 0 80 0 117 -94 63 -157 -24
-28 -25 -28 -167 -31 l-142 -4 -25 31 c-27 36 -81 66 -135 76 l-37 7 0 -307 0
-306 298 3 c276 3 300 4 342 24 54 25 100 71 117 116 17 48 16 151 -3 197 -16
39 -62 84 -105 99 -21 8 -21 9 11 32 45 32 70 91 70 168 0 73 -16 116 -56 154
-59 55 -94 61 -396 66 l-278 4 0 -86z m517 -436 c55 -20 71 -98 29 -147 -24
-28 -24 -28 -175 -31 -83 -3 -157 -2 -163 1 -10 3 -12 29 -10 96 l3 91 143 0
c79 0 157 -5 173 -10z"/>
<path d="M1760 995 l0 -85 380 0 381 0 -3 83 -3 82 -377 3 -378 2 0 -85z"/>
<path d="M2040 526 l0 -306 95 0 95 0 0 254 c0 242 -1 254 -21 280 -25 32 -81
62 -132 71 l-37 7 0 -306z"/>
<path d="M940 452 c0 -56 47 -141 95 -174 68 -46 145 -62 290 -62 113 1 139 4
195 25 52 19 66 29 68 47 5 34 -14 74 -54 113 l-34 33 -23 -22 c-31 -29 -78
-42 -152 -42 -110 0 -185 39 -185 96 0 24 -2 24 -100 24 l-100 0 0 -38z"/>
</g>
</svg>
